<?xml version="1.0" encoding="utf-8"?>
<!-- Generator: Adobe Illustrator 16.0.0, SVG Export Plug-In . SVG Version: 6.00 Build 0)  -->
<!DOCTYPE svg PUBLIC "-//W3C//DTD SVG 1.1//EN" "http://www.w3.org/Graphics/SVG/1.1/DTD/svg11.dtd">
<svg version="1.1"
	 id="svg4828" sodipodi:docname="cardboard.svg" inkscape:version="0.91 r13725" xmlns:dc="http://purl.org/dc/elements/1.1/" xmlns:cc="http://creativecommons.org/ns#" xmlns:rdf="http://www.w3.org/1999/02/22-rdf-syntax-ns#" xmlns:svg="http://www.w3.org/2000/svg" xmlns:sodipodi="http://sodipodi.sourceforge.net/DTD/sodipodi-0.dtd" xmlns:inkscape="http://www.inkscape.org/namespaces/inkscape"
	 xmlns="http://www.w3.org/2000/svg" xmlns:xlink="http://www.w3.org/1999/xlink" x="0px" y="0px" width="245.914px" height="160px"
	 viewBox="0 0 245.914 160" enable-background="new 0 0 245.914 160" xml:space="preserve">
<sodipodi:namedview  id="base" fit-margin-bottom="0" fit-margin-right="0" inkscape:window-y="247" inkscape:window-x="1015" inkscape:window-height="405" inkscape:window-width="1023" inkscape:current-layer="layer1" inkscape:document-units="px" inkscape:pageshadow="2" inkscape:pageopacity="0.0" inkscape:window-maximized="0" fit-margin-top="0" inkscape:cy="145.88173" inkscape:cx="112.64256" inkscape:zoom="0.35" borderopacity="1.0" showgrid="false" bordercolor="#666666" pagecolor="#ffffff" fit-margin-left="0">
	</sodipodi:namedview>
<g id="layer1" transform="translate(-150.78614,-478.24394)" inkscape:groupmode="layer" inkscape:label="Layer 1">
	<path id="path4778-2" inkscape:connector-curvature="0" fill="#FFFFFF" d="M326.221,637.959c-6.315-0.175-8.808-0.382-9.595-0.797
		c-0.585-0.308-1.065-0.691-1.066-0.851c-0.001-0.16-0.241-0.291-0.532-0.291c-0.816,0-3.945-3.55-5.051-5.733
		c-0.547-1.077-1.709-3.762-2.586-5.965c-0.875-2.203-1.828-4.529-2.116-5.17c-0.288-0.64-1.421-3.432-2.516-6.204
		s-2.177-5.478-2.403-6.011c-0.228-0.533-0.547-1.318-0.71-1.744c-0.163-0.428-0.575-1.413-0.917-2.191
		c-0.342-0.779-0.621-1.522-0.621-1.652c0-0.131-0.367-1.064-0.814-2.074c-1.232-2.781-1.441-3.305-1.732-4.358
		c-0.148-0.533-0.615-1.755-1.039-2.714c-0.424-0.961-1.012-2.295-1.307-2.967c-0.295-0.673-0.537-1.332-0.537-1.466
		s-0.631-1.573-1.402-3.2c-2.299-4.843-6.385-8.42-12.17-10.65c-1.809-0.699-9.048-0.699-10.857,0
		c-5.274,2.034-9.505,5.427-11.541,9.255c-0.656,1.233-3.303,7.651-5.882,14.263s-4.862,12.414-5.072,12.893
		c-1.789,4.075-5.812,14.498-5.812,15.058c0,0.303-0.136,0.551-0.303,0.551c-0.167,0-0.534,0.781-0.816,1.736
		c-1.209,4.096-4.959,7.682-9.483,9.069c-2.225,0.682-4.559,0.75-34.185,0.997c-35.526,0.296-34.468,0.361-38.334-2.361
		c-1.878-1.322-4.902-5.317-4.902-6.475c0-0.267-0.218-0.703-0.484-0.97c-0.647-0.646-0.925-134.901-0.285-137.902
		c0.853-4,4.022-8.564,7.028-10.118c3.526-1.824-3.233-1.729,115.948-1.623l111.424,0.1l2.133,0.951
		c2.309,1.029,5.896,4.159,6.911,6.029c1.69,3.111,1.634,0.987,1.876,71.931l0.23,67.666l-0.85,2.521
		c-1.025,3.04-3.018,6.176-4.756,7.488c-3.17,2.391-4.115,2.693-9.422,3.019C375.999,638.344,339.263,638.319,326.221,637.959
		L326.221,637.959L326.221,637.959z M219.584,586.773c0.132-0.213,1.096-0.387,2.142-0.387s2.737-0.271,3.758-0.602
		c2.471-0.801,7.16-3.178,8.519-4.319c7.754-6.513,11.763-14.679,11.75-23.934c-0.007-4.79-0.725-7.997-2.698-12.056
		c-3.335-6.861-9.264-12.081-16.297-14.348c-1.173-0.378-2.532-0.872-3.02-1.096c-1.281-0.589-10.412-0.505-12.297,0.113
		c-4.557,1.495-7.137,2.753-9.883,4.82c-4.612,3.472-6.679,6.328-10.129,14c-0.994,2.209-1.879,12-1.151,12.728
		c0.23,0.229,0.418,1.061,0.418,1.847c0,2.813,2.553,8.791,5.234,12.26c2.319,2.998,5.821,6.097,8.337,7.375
		c0.747,0.379,1.416,0.82,1.486,0.98c0.071,0.16,0.379,0.291,0.684,0.291c0.305,0,0.857,0.169,1.228,0.375
		c1.372,0.766,4.434,1.564,6.019,1.57c0.899,0.002,1.896,0.174,2.216,0.381C216.666,587.268,219.278,587.268,219.584,586.773
		L219.584,586.773z M331.262,586.773c0.131-0.213,1.183-0.387,2.336-0.387c2.773,0,6.256-1.199,10.236-3.523
		c4.14-2.416,8.514-7.392,10.713-12.182c2.381-5.188,2.697-6.674,2.682-12.603c-0.012-4.365-0.164-5.718-0.916-8.143
		c-3.721-11.979-13.261-19.703-25.238-20.432c-5.016-0.306-9.145,0.539-13.967,2.856c-3.174,1.526-4.168,2.261-7.182,5.311
		c-3.854,3.898-5.682,6.909-7.217,11.877c-1.285,4.156-1.278,10.858,0.014,15.511c0.504,1.813,1.067,3.462,1.252,3.664
		c0.186,0.203,0.336,0.684,0.336,1.066c0,0.385,0.176,0.698,0.389,0.698s0.388,0.335,0.388,0.743c0,0.409,0.131,0.802,0.29,0.873
		c0.16,0.07,0.605,0.75,0.99,1.508c1.22,2.404,5.597,6.817,8.803,8.873c1.682,1.08,3.209,1.963,3.395,1.963s1.074,0.355,1.975,0.791
		s2.81,0.895,4.241,1.021s2.865,0.376,3.185,0.555C328.78,587.267,330.973,587.24,331.262,586.773L331.262,586.773L331.262,586.773z
		"/>
</g>
</svg>
